<svg width="125" height="97" viewBox="0 0 125 97" fill="none" xmlns="http://www.w3.org/2000/svg">
<path d="M37.675 1.17376e-06C33.9039 -0.00139202 30.2371 1.23749 27.2396 3.52571C24.2421 5.81393 22.0803 9.02447 21.0875 12.6625L15.1375 34.5C10.9645 35.0013 7.11982 37.0143 4.33049 40.1583C1.54117 43.3024 0.000564286 47.3595 0 51.5625V65.625C0 71.0312 2.5 75.85 6.39375 79C6.94587 83.5989 9.0532 87.871 12.3663 91.108C15.6795 94.3449 19.9994 96.3523 24.61 96.7973C29.2205 97.2423 33.8446 96.0982 37.7157 93.5547C41.5868 91.0111 44.4723 87.2209 45.8937 82.8125H75.9812C77.3517 87.0311 80.0645 90.6856 83.7059 93.2184C87.3473 95.7512 91.7172 97.0233 96.1491 96.8406C100.581 96.6579 104.831 95.0304 108.252 92.2065C111.672 89.3825 114.075 85.5171 115.094 81.2C118.055 79.8149 120.56 77.6139 122.315 74.8552C124.07 72.0964 125.001 68.8945 125 65.625V55.075C125 51.2418 123.719 47.5186 121.36 44.4972C119.001 41.4758 115.7 39.3297 111.981 38.4L98.3375 34.9875L82.6625 8.45C81.1432 5.87633 78.979 3.74332 76.3836 2.26147C73.7881 0.77962 70.8512 0.000155378 67.8625 1.17376e-06H37.675ZM30.1375 15.1313C30.5886 13.4779 31.5708 12.0187 32.9328 10.9785C34.2949 9.93834 35.9612 9.3749 37.675 9.375H46.875V34.375H24.8875L30.1375 15.1313ZM56.25 34.375V9.375H67.8625C70.6312 9.375 73.1875 10.8375 74.5938 13.2125L87.0937 34.375H56.25ZM26.5625 65.625C29.4633 65.625 32.2453 66.7773 34.2965 68.8285C36.3477 70.8797 37.5 73.6617 37.5 76.5625C37.5 79.4633 36.3477 82.2453 34.2965 84.2965C32.2453 86.3477 29.4633 87.5 26.5625 87.5C23.6617 87.5 20.8797 86.3477 18.8285 84.2965C16.7773 82.2453 15.625 79.4633 15.625 76.5625C15.625 73.6617 16.7773 70.8797 18.8285 68.8285C20.8797 66.7773 23.6617 65.625 26.5625 65.625ZM84.375 76.5625C84.375 73.6617 85.5273 70.8797 87.5785 68.8285C89.6297 66.7773 92.4117 65.625 95.3125 65.625C98.2133 65.625 100.995 66.7773 103.046 68.8285C105.098 70.8797 106.25 73.6617 106.25 76.5625C106.25 79.4633 105.098 82.2453 103.046 84.2965C100.995 86.3477 98.2133 87.5 95.3125 87.5C92.4117 87.5 89.6297 86.3477 87.5785 84.2965C85.5273 82.2453 84.375 79.4633 84.375 76.5625Z" fill="black"/>
</svg>
