<svg width="30" height="30" viewBox="0 0 30 30" fill="none" xmlns="http://www.w3.org/2000/svg">
<path d="M2.5 15C2.5 9.1075 2.5 6.16125 4.33 4.33C6.1625 2.5 9.1075 2.5 15 2.5C20.8925 2.5 23.8387 2.5 25.6687 4.33C27.5 6.1625 27.5 9.1075 27.5 15C27.5 20.8925 27.5 23.8387 25.6687 25.6687C23.84 27.5 20.8925 27.5 15 27.5C9.1075 27.5 6.16125 27.5 4.33 25.6687C2.5 23.84 2.5 20.8925 2.5 15Z" stroke="#0653C7" stroke-width="1.5"/>
<path d="M20 12.5C21.3807 12.5 22.5 11.3807 22.5 10C22.5 8.61929 21.3807 7.5 20 7.5C18.6193 7.5 17.5 8.61929 17.5 10C17.5 11.3807 18.6193 12.5 20 12.5Z" stroke="#0653C7" stroke-width="1.5"/>
<path d="M2.5 15.625L4.69 13.7088C5.23892 13.2288 5.94968 12.9754 6.6784 12.9998C7.40712 13.0242 8.09937 13.3245 8.615 13.84L13.9775 19.2025C14.3936 19.6186 14.9432 19.8745 15.5294 19.9252C16.1157 19.976 16.7011 19.8183 17.1825 19.48L17.5563 19.2175C18.2507 18.7297 19.0902 18.492 19.9373 18.543C20.7844 18.5941 21.5892 18.9311 22.22 19.4988L26.25 23.125" stroke="#0653C7" stroke-width="1.5" stroke-linecap="round"/>
</svg>
