<svg width="25" height="25" viewBox="0 0 25 25" fill="none" xmlns="http://www.w3.org/2000/svg">
<path fill-rule="evenodd" clip-rule="evenodd" d="M12.5 0C19.4038 0 25 5.59625 25 12.5C25.0044 15.3849 24.0067 18.1817 22.1775 20.4125L22.2025 20.44L22.0375 20.58C20.8653 21.9665 19.4045 23.0804 17.7572 23.8439C16.1098 24.6073 14.3157 25.0019 12.5 25C8.81251 25 5.50001 23.4038 3.21251 20.8663L2.96251 20.5787L2.79751 20.4412L2.82251 20.4113C0.993461 18.1809 -0.00420928 15.3845 1.33493e-05 12.5C1.33493e-05 5.59625 5.59626 0 12.5 0ZM12.5 18.75C10.175 18.75 8.07376 19.49 6.50876 20.5063C8.23663 21.8033 10.3395 22.5031 12.5 22.5C14.6605 22.5031 16.7634 21.8033 18.4913 20.5063C16.7028 19.3608 14.6238 18.7513 12.5 18.75ZM12.5 2.5C10.6182 2.49995 8.7745 3.03089 7.18092 4.03181C5.58733 5.03273 4.30852 6.463 3.49146 8.15821C2.67441 9.85343 2.35227 11.7448 2.56208 13.6149C2.77188 15.485 3.50512 17.258 4.67751 18.73C6.70376 17.2762 9.46876 16.25 12.5 16.25C15.5313 16.25 18.2963 17.2762 20.3225 18.73C21.4949 17.258 22.2281 15.485 22.438 13.6149C22.6478 11.7448 22.3256 9.85343 21.5086 8.15821C20.6915 6.463 19.4127 5.03273 17.8191 4.03181C16.2255 3.03089 14.3819 2.49995 12.5 2.5ZM12.5 5C13.8261 5 15.0979 5.52678 16.0355 6.46447C16.9732 7.40215 17.5 8.67392 17.5 10C17.5 11.3261 16.9732 12.5979 16.0355 13.5355C15.0979 14.4732 13.8261 15 12.5 15C11.1739 15 9.90216 14.4732 8.96448 13.5355C8.0268 12.5979 7.50001 11.3261 7.50001 10C7.50001 8.67392 8.0268 7.40215 8.96448 6.46447C9.90216 5.52678 11.1739 5 12.5 5ZM12.5 7.5C11.837 7.5 11.2011 7.76339 10.7322 8.23223C10.2634 8.70107 10 9.33696 10 10C10 10.663 10.2634 11.2989 10.7322 11.7678C11.2011 12.2366 11.837 12.5 12.5 12.5C13.1631 12.5 13.7989 12.2366 14.2678 11.7678C14.7366 11.2989 15 10.663 15 10C15 9.33696 14.7366 8.70107 14.2678 8.23223C13.7989 7.76339 13.1631 7.5 12.5 7.5Z" fill="white"/>
</svg>
