<svg width="106" height="106" viewBox="0 0 106 106" fill="none" xmlns="http://www.w3.org/2000/svg">
<g filter="url(#filter0_d_1_20)">
<path d="M103.792 75.0833L81.7084 97.1667L66.25 81.7083L72.875 75.0833L81.7084 83.9167L97.1667 68.4583L103.792 75.0833ZM26.5 8.83333C24.1573 8.83333 21.9105 9.76398 20.2539 11.4206C18.5973 13.0771 17.6667 15.3239 17.6667 17.6667V88.3333C17.6667 93.2358 21.5975 97.1667 26.5 97.1667H60.9942C59.4042 94.4283 58.3 91.425 57.77 88.3333H26.5V17.6667H57.4167V39.75H79.5V57.77C80.9575 57.5492 82.4592 57.4167 83.9167 57.4167C85.4184 57.4167 86.8759 57.5492 88.3334 57.77V35.3333L61.8334 8.83333M35.3334 53V61.8333H70.6667V53M35.3334 70.6667V79.5H57.4167V70.6667H35.3334Z" fill="#0653C7" fill-opacity="0.9"/>
</g>
<defs>
<filter id="filter0_d_1_20" x="-4" y="0" width="114" height="114" filterUnits="userSpaceOnUse" color-interpolation-filters="sRGB">
<feFlood flood-opacity="0" result="BackgroundImageFix"/>
<feColorMatrix in="SourceAlpha" type="matrix" values="0 0 0 0 0 0 0 0 0 0 0 0 0 0 0 0 0 0 127 0" result="hardAlpha"/>
<feOffset dy="4"/>
<feGaussianBlur stdDeviation="2"/>
<feComposite in2="hardAlpha" operator="out"/>
<feColorMatrix type="matrix" values="0 0 0 0 0 0 0 0 0 0 0 0 0 0 0 0 0 0 0.25 0"/>
<feBlend mode="normal" in2="BackgroundImageFix" result="effect1_dropShadow_1_20"/>
<feBlend mode="normal" in="SourceGraphic" in2="effect1_dropShadow_1_20" result="shape"/>
</filter>
</defs>
</svg>
