<svg width="31" height="32" viewBox="0 0 31 32" fill="none" xmlns="http://www.w3.org/2000/svg">
<path fill-rule="evenodd" clip-rule="evenodd" d="M10.6562 17.3333C10.6562 16.0072 11.1666 14.7355 12.075 13.7978C12.9833 12.8601 14.2154 12.3333 15.5 12.3333C16.7846 12.3333 18.0167 12.8601 18.925 13.7978C19.8334 14.7355 20.3438 16.0072 20.3438 17.3333C20.3438 18.6594 19.8334 19.9312 18.925 20.8689C18.0167 21.8065 16.7846 22.3333 15.5 22.3333C14.2154 22.3333 12.9833 21.8065 12.075 20.8689C11.1666 19.9312 10.6562 18.6594 10.6562 17.3333ZM15.5 14.3333C14.7292 14.3333 13.99 14.6494 13.445 15.212C12.8999 15.7746 12.5938 16.5377 12.5938 17.3333C12.5938 18.129 12.8999 18.892 13.445 19.4547C13.99 20.0173 14.7292 20.3333 15.5 20.3333C16.2708 20.3333 17.01 20.0173 17.555 19.4547C18.1001 18.892 18.4062 18.129 18.4062 17.3333C18.4062 16.5377 18.1001 15.7746 17.555 15.212C17.01 14.6494 16.2708 14.3333 15.5 14.3333Z" fill="white"/>
<path fill-rule="evenodd" clip-rule="evenodd" d="M13.7123 7.66667C13.0642 7.66667 12.4426 7.93245 11.9843 8.40554C11.526 8.87863 11.2685 9.52028 11.2685 10.1893C11.2683 10.6176 11.1121 11.0301 10.831 11.345C10.5498 11.6599 10.1643 11.8542 9.75079 11.8893L6.87037 12.1293C6.59492 12.1522 6.3344 12.268 6.12899 12.4589C5.92358 12.6497 5.78469 12.905 5.73371 13.1853C5.15456 16.3452 5.11173 19.585 5.60713 22.76L5.73242 23.5653C5.85125 24.3253 6.45704 24.9053 7.20104 24.968L9.71075 25.1787C13.5639 25.5013 17.4361 25.5013 21.2893 25.1787L23.7977 24.968C24.1594 24.9378 24.5009 24.7832 24.7674 24.5289C25.0339 24.2745 25.2101 23.9352 25.2676 23.5653L25.3929 22.76C25.8878 19.5849 25.8446 16.3451 25.265 13.1853C25.2138 12.9052 25.0748 12.6502 24.8694 12.4597C24.664 12.2691 24.4036 12.1535 24.1283 12.1307L21.2492 11.8893C20.8355 11.8548 20.4496 11.6607 20.1684 11.3456C19.8871 11.0306 19.7311 10.6178 19.7315 10.1893C19.7315 9.85805 19.6683 9.53001 19.5455 9.22395C19.4227 8.91789 19.2426 8.63979 19.0157 8.40554C18.7888 8.17129 18.5194 7.98547 18.2229 7.85869C17.9264 7.73192 17.6086 7.66667 17.2877 7.66667H13.7123ZM9.33875 9.91733C9.4062 8.7671 9.89632 7.68679 10.7091 6.89686C11.5219 6.10693 12.596 5.66694 13.7123 5.66667H17.2877C19.6191 5.66667 21.5243 7.54667 21.6613 9.91733L24.2859 10.1373C24.9842 10.1955 25.6446 10.4889 26.1655 10.9724C26.6864 11.456 27.039 12.1028 27.1689 12.8133C27.7902 16.2 27.8367 19.6733 27.3058 23.0773L27.1805 23.884C27.054 24.6955 26.6674 25.4397 26.0827 25.9976C25.498 26.5555 24.7489 26.8948 23.9552 26.9613L21.4468 27.172C17.4888 27.5038 13.5112 27.5038 9.55317 27.172L7.04475 26.9613C6.25112 26.8948 5.50204 26.5555 4.91732 25.9976C4.3326 25.4397 3.94604 24.6955 3.81946 23.884L3.69417 23.0773C3.16351 19.6736 3.20983 16.2007 3.83108 12.8133C3.96125 12.1029 4.31387 11.4562 4.83474 10.9727C5.35561 10.4892 6.01589 10.1957 6.71408 10.1373L9.33875 9.91733Z" fill="white"/>
</svg>
