<svg width="217" height="119" viewBox="0 0 217 119" fill="none" xmlns="http://www.w3.org/2000/svg">
<g clip-path="url(#clip0_34_33)">
<path d="M211.857 65H6.14286C1.59768 64.9987 -2.76004 64.4926 -5.97396 63.5927C-9.18789 62.6928 -10.9955 61.4727 -11 60.2V45.8C-10.9955 44.5274 -9.18789 43.3072 -5.97396 42.4073C-2.76004 41.5074 1.59768 41.0013 6.14286 41H211.857C216.402 41.0013 220.76 41.5074 223.974 42.4073C227.188 43.3072 228.995 44.5274 229 45.8V60.2C228.995 61.4727 227.188 62.6928 223.974 63.5927C220.76 64.4926 216.402 64.9987 211.857 65ZM6.14286 45.8V60.2H211.857V45.8H6.14286Z" fill="black"/>
<path d="M14 50H109V56H14V50Z" fill="black"/>
</g>
<defs>
<clipPath id="clip0_34_33">
<rect width="217" height="119" fill="white"/>
</clipPath>
</defs>
</svg>
