<svg width="30" height="30" viewBox="0 0 30 30" fill="none" xmlns="http://www.w3.org/2000/svg">
<path d="M25 15C25 15.3315 24.8683 15.6495 24.6339 15.8839C24.3995 16.1183 24.0815 16.25 23.75 16.25L6.25 16.25C5.91848 16.25 5.60054 16.1183 5.36612 15.8839C5.13169 15.6495 5 15.3315 5 15C5 14.6685 5.13169 14.3505 5.36612 14.1161C5.60054 13.8817 5.91848 13.75 6.25 13.75L23.75 13.75C24.0815 13.75 24.3995 13.8817 24.6339 14.1161C24.8683 14.3505 25 14.6685 25 15ZM20 21.25C20 21.5815 19.8683 21.8995 19.6339 22.1339C19.3995 22.3683 19.0815 22.5 18.75 22.5L6.25 22.5C5.91848 22.5 5.60054 22.3683 5.36612 22.1339C5.13169 21.8995 5 21.5815 5 21.25C5 20.9185 5.13169 20.6005 5.36612 20.3661C5.60054 20.1317 5.91848 20 6.25 20L18.75 20C19.0815 20 19.3995 20.1317 19.6339 20.3661C19.8683 20.6005 20 20.9185 20 21.25ZM15 8.75C15 9.08152 14.8683 9.39946 14.6339 9.63388C14.3995 9.8683 14.0815 10 13.75 10L6.25 10C5.91848 10 5.60054 9.8683 5.36612 9.63388C5.13169 9.39946 5 9.08152 5 8.75C5 8.41848 5.13169 8.10054 5.36612 7.86612C5.60054 7.6317 5.91848 7.5 6.25 7.5L13.75 7.5C14.0815 7.5 14.3995 7.6317 14.6339 7.86612C14.8683 8.10054 15 8.41848 15 8.75Z" fill="white"/>
</svg>
