<svg width="150" height="108" viewBox="0 0 150 108" fill="none" xmlns="http://www.w3.org/2000/svg">
<path d="M16.0714 0C7.25893 0 0 7.25893 0 16.0714V91.0714C0 99.8839 7.25893 107.143 16.0714 107.143H133.929C142.741 107.143 150 99.8839 150 91.0714V16.0714C150 7.25893 142.741 0 133.929 0H16.0714ZM16.0714 10.7143H133.929C136.961 10.7143 139.286 13.0393 139.286 16.0714V91.0714C139.286 94.1036 136.961 96.4286 133.929 96.4286H16.0714C13.0393 96.4286 10.7143 94.1036 10.7143 91.0714V16.0714C10.7143 13.0393 13.0393 10.7143 16.0714 10.7143ZM48.2143 21.4286C36.4286 21.4286 26.7857 31.0714 26.7857 42.8571C26.7857 48.8196 29.3411 54.1982 33.3161 58.0929C29.6696 60.5535 26.6802 63.8686 24.6082 67.7492C22.5363 71.6297 21.4447 75.9581 21.4286 80.3571H32.1429C32.1429 71.4214 39.2786 64.2857 48.2143 64.2857C57.15 64.2857 64.2857 71.4214 64.2857 80.3571H75C74.9839 75.9581 73.8923 71.6297 71.8204 67.7492C69.7484 63.8686 66.759 60.5535 63.1125 58.0929C67.0875 54.1982 69.6429 48.825 69.6429 42.8571C69.6429 31.0714 60 21.4286 48.2143 21.4286ZM85.7143 26.7857V37.5H128.571V26.7857H85.7143ZM48.2143 32.1429C54.1982 32.1429 58.9286 36.8732 58.9286 42.8571C58.9286 48.8411 54.1982 53.5714 48.2143 53.5714C42.2304 53.5714 37.5 48.8411 37.5 42.8571C37.5 36.8732 42.2304 32.1429 48.2143 32.1429ZM85.7143 48.2143V58.9286H128.571V48.2143H85.7143ZM85.7143 69.6429V80.3571H112.5V69.6429H85.7143Z" fill="black"/>
</svg>
